<?xml version="1.0" encoding="UTF-8"?>
<svg width="201px" height="83px" viewBox="0 0 201 83" version="1.1" xmlns="http://www.w3.org/2000/svg" xmlns:xlink="http://www.w3.org/1999/xlink">
    <!-- Generator: sketchtool 63.1 (101010) - https://sketch.com -->
    <title>E7C05EEE-3523-4CAD-9EEA-B9622D1E21F3</title>
    <desc>Created with sketchtool.</desc>
    <g id="Log-in" stroke="none" stroke-width="1" fill="none" fill-rule="evenodd">
        <g id="Brand" transform="translate(-620.000000, -507.000000)">
            <g id="Group-8" transform="translate(620.000000, 507.000000)">
                <path d="M11.2768831,7.875 L11.2768831,36.33 C15.5579221,30.45 21.614026,27.51 29.5496104,27.51 C36.7542857,27.51 42.8103896,30.135 47.9267532,35.49 C53.0431169,40.845 55.5490909,47.355 55.5490909,55.125 C55.5490909,62.79 53.0431169,69.405 47.9267532,74.76 C42.8103896,80.115 36.7542857,82.74 29.5496104,82.74 C21.614026,82.74 15.5579221,79.8 11.2768831,73.815 L11.2768831,73.815 L11.2768831,81.375 L3.70958675e-14,81.375 L3.70958675e-14,7.875 L11.2768831,7.875 Z M86.5083117,27.51 C94.1306494,27.51 100.395584,30.24 105.303117,35.595 C110.210649,40.95 112.716623,47.565 112.716623,55.23 C112.716623,56.385 112.612208,57.96 112.298961,59.955 L112.298961,59.955 L70.7415584,59.955 C72.4122078,67.935 78.7815584,72.345 87.4480519,72.345 C93.3997403,72.345 97.8896104,70.14 100.917662,65.835 L100.917662,65.835 L110.210649,71.295 C105.094286,78.96 97.4719481,82.74 87.3436364,82.74 C78.885974,82.74 71.9945455,80.115 66.7737662,74.97 C61.552987,69.72 58.9425974,63.105 58.9425974,55.125 C58.9425974,47.25 61.552987,40.74 66.6693506,35.49 C71.7857143,30.135 78.4683117,27.51 86.5083117,27.51 Z M133.234286,14.175 L133.234286,28.875 L146.181818,28.875 L146.181818,39.795 L133.234286,39.795 L133.234286,64.995 C133.234286,71.715 137.61974,71.61 146.181818,71.19 L146.181818,71.19 L146.181818,81.375 C128.953247,83.475 121.957403,78.75 121.957403,64.995 L121.957403,64.995 L121.957403,39.795 L112.351169,39.795 L112.351169,28.875 L121.957403,28.875 L121.957403,17.535 L133.234286,14.175 Z M188.00026,14.175 L188.00026,28.875 L200.947792,28.875 L200.947792,39.795 L188.00026,39.795 L188.00026,64.995 C188.00026,71.715 192.385714,71.61 200.947792,71.19 L200.947792,71.19 L200.947792,81.375 C183.719221,83.475 176.723377,78.75 176.723377,64.995 L176.723377,64.995 L176.723377,39.795 L167.117143,39.795 L167.117143,28.875 L176.723377,28.875 L176.723377,17.535 L188.00026,14.175 Z M162.679481,28.875 L162.679481,81.375 L151.402597,81.375 L151.402597,28.875 L162.679481,28.875 Z M27.7745455,38.325 C23.0758442,38.325 19.1080519,39.9 15.9755844,43.155 C12.8431169,46.305 11.2768831,50.295 11.2768831,55.125 C11.2768831,59.955 12.8431169,63.945 15.9755844,67.2 C19.1080519,70.35 23.0758442,71.925 27.7745455,71.925 C32.4732468,71.925 36.441039,70.35 39.5735065,67.2 C42.705974,63.945 44.2722078,59.955 44.2722078,55.125 C44.2722078,50.295 42.705974,46.305 39.5735065,43.155 C36.441039,39.9 32.4732468,38.325 27.7745455,38.325 Z M86.4038961,37.8 C78.0506494,37.8 72.2033766,42.735 70.6371429,50.715 L70.6371429,50.715 L101.335325,50.715 C99.7690909,42.21 93.8174026,37.8 86.4038961,37.8 Z" id="Combined-Shape" fill="#262626" fill-rule="nonzero"></path>
                <ellipse id="Oval" fill="#FF8E4F" cx="156.571169" cy="11.8125" rx="11.7467532" ry="11.8125"></ellipse>
            </g>
        </g>
    </g>
</svg>